  0
SECTION
  2
HEADER
  9
$ACADVER
  1
AC1009
  9
$MEASUREMENT
 70
     1
  0
ENDSEC
  0
SECTION
  2
ENTITIES
  0
LWPOLYLINE
  8
0
 62
7
 90
5
 70
1
 10
37.000000
 20
20.382562
 10
37.379438
 20
20.382562
 10
37.379438
 20
21.141438
 10
36.620562
 20
21.141438
 10
36.620562
 20
20.382562
  0
LWPOLYLINE
  8
0
 62
7
 90
5
 70
1
 10
37.000000
 20
18.858562
 10
37.379438
 20
18.858562
 10
37.379438
 20
19.617438
 10
36.620562
 20
19.617438
 10
36.620562
 20
18.858562
  0
LWPOLYLINE
  8
0
 62
7
 90
5
 70
1
 10
57.617438
 20
19.500000
 10
57.617438
 20
19.879438
 10
56.858562
 20
19.879438
 10
56.858562
 20
19.120562
 10
57.617438
 20
19.120562
  0
LWPOLYLINE
  8
0
 62
7
 90
5
 70
1
 10
59.141438
 20
19.500000
 10
59.141438
 20
19.879438
 10
58.382562
 20
19.879438
 10
58.382562
 20
19.120562
 10
59.141438
 20
19.120562
  0
LWPOLYLINE
  8
0
 62
7
 90
5
 70
1
 10
47.501562
 20
7.000000
 10
47.501562
 20
6.401562
 10
48.298437
 20
6.401562
 10
48.298437
 20
7.598438
 10
47.501562
 20
7.598438
  0
LWPOLYLINE
  8
0
 62
7
 90
5
 70
1
 10
45.701563
 20
7.000000
 10
45.701563
 20
6.401562
 10
46.498438
 20
6.401562
 10
46.498438
 20
7.598438
 10
45.701563
 20
7.598438
  0
LWPOLYLINE
  8
0
 62
7
 90
5
 70
1
 10
44.498438
 20
11.500000
 10
44.498438
 20
12.098437
 10
43.701563
 20
12.098437
 10
43.701563
 20
10.901563
 10
44.498438
 20
10.901563
  0
LWPOLYLINE
  8
0
 62
7
 90
5
 70
1
 10
46.298437
 20
11.500000
 10
46.298437
 20
12.098437
 10
45.501562
 20
12.098437
 10
45.501562
 20
10.901563
 10
46.298437
 20
10.901563
  0
LWPOLYLINE
  8
0
 62
7
 90
5
 70
1
 10
57.382562
 20
23.500000
 10
57.382562
 20
23.120562
 10
58.141438
 20
23.120562
 10
58.141438
 20
23.879438
 10
57.382562
 20
23.879438
  0
LWPOLYLINE
  8
0
 62
7
 90
5
 70
1
 10
55.858562
 20
23.500000
 10
55.858562
 20
23.120562
 10
56.617438
 20
23.120562
 10
56.617438
 20
23.879438
 10
55.858562
 20
23.879438
  0
LWPOLYLINE
  8
0
 62
7
 90
5
 70
1
 10
56.617438
 20
28.500000
 10
56.617438
 20
28.879438
 10
55.858562
 20
28.879438
 10
55.858562
 20
28.120562
 10
56.617438
 20
28.120562
  0
LWPOLYLINE
  8
0
 62
7
 90
5
 70
1
 10
58.141438
 20
28.500000
 10
58.141438
 20
28.879438
 10
57.382562
 20
28.879438
 10
57.382562
 20
28.120562
 10
58.141438
 20
28.120562
  0
LWPOLYLINE
  8
0
 62
7
 90
5
 70
1
 10
22.000000
 20
30.998438
 10
21.401563
 20
30.998438
 10
21.401563
 20
30.201563
 10
22.598437
 20
30.201563
 10
22.598437
 20
30.998438
  0
LWPOLYLINE
  8
0
 62
7
 90
5
 70
1
 10
22.000000
 20
32.798437
 10
21.401563
 20
32.798437
 10
21.401563
 20
32.001562
 10
22.598437
 20
32.001562
 10
22.598437
 20
32.798437
  0
LWPOLYLINE
  8
0
 62
7
 90
5
 70
1
 10
23.000000
 20
5.117438
 10
22.620562
 20
5.117438
 10
22.620562
 20
4.358563
 10
23.379438
 20
4.358563
 10
23.379438
 20
5.117438
  0
LWPOLYLINE
  8
0
 62
7
 90
5
 70
1
 10
23.000000
 20
6.641437
 10
22.620562
 20
6.641437
 10
22.620562
 20
5.882562
 10
23.379438
 20
5.882562
 10
23.379438
 20
6.641437
  0
LWPOLYLINE
  8
0
 62
7
 90
5
 70
1
 10
18.000000
 20
3.882562
 10
18.379438
 20
3.882562
 10
18.379438
 20
4.641437
 10
17.620562
 20
4.641437
 10
17.620562
 20
3.882562
  0
LWPOLYLINE
  8
0
 62
7
 90
5
 70
1
 10
18.000000
 20
2.358563
 10
18.379438
 20
2.358563
 10
18.379438
 20
3.117437
 10
17.620562
 20
3.117437
 10
17.620562
 20
2.358563
  0
LWPOLYLINE
  8
0
 62
7
 90
5
 70
1
 10
16.000000
 20
7.882563
 10
16.379438
 20
7.882563
 10
16.379438
 20
8.641438
 10
15.620563
 20
8.641438
 10
15.620563
 20
7.882563
  0
LWPOLYLINE
  8
0
 62
7
 90
5
 70
1
 10
16.000000
 20
6.358563
 10
16.379438
 20
6.358563
 10
16.379438
 20
7.117438
 10
15.620563
 20
7.117438
 10
15.620563
 20
6.358563
  0
LWPOLYLINE
  8
0
 62
7
 90
5
 70
1
 10
16.000000
 20
11.117437
 10
15.620563
 20
11.117437
 10
15.620563
 20
10.358562
 10
16.379438
 20
10.358562
 10
16.379438
 20
11.117437
  0
LWPOLYLINE
  8
0
 62
7
 90
5
 70
1
 10
16.000000
 20
12.641438
 10
15.620563
 20
12.641438
 10
15.620563
 20
11.882563
 10
16.379438
 20
11.882563
 10
16.379438
 20
12.641438
  0
LWPOLYLINE
  8
0
 62
7
 90
5
 70
1
 10
28.617438
 20
12.000000
 10
28.617438
 20
12.379437
 10
27.858562
 20
12.379437
 10
27.858562
 20
11.620563
 10
28.617438
 20
11.620563
  0
LWPOLYLINE
  8
0
 62
7
 90
5
 70
1
 10
30.141438
 20
12.000000
 10
30.141438
 20
12.379437
 10
29.382562
 20
12.379437
 10
29.382562
 20
11.620563
 10
30.141438
 20
11.620563
  0
LWPOLYLINE
  8
0
 62
7
 90
5
 70
1
 10
13.998438
 20
31.500000
 10
13.998438
 20
33.198437
 10
12.101563
 20
33.198437
 10
12.101563
 20
29.801562
 10
13.998438
 20
29.801562
  0
LWPOLYLINE
  8
0
 62
7
 90
5
 70
1
 10
17.898438
 20
31.500000
 10
17.898438
 20
33.198437
 10
16.001562
 20
33.198437
 10
16.001562
 20
29.801562
 10
17.898438
 20
29.801562
  0
LWPOLYLINE
  8
0
 62
7
 90
5
 70
1
 10
42.000000
 20
18.948438
 10
41.751562
 20
18.948438
 10
41.751562
 20
17.451562
 10
42.248438
 20
17.451562
 10
42.248438
 20
18.948438
  0
LWPOLYLINE
  8
0
 62
7
 90
5
 70
1
 10
42.800000
 20
18.948438
 10
42.551562
 20
18.948438
 10
42.551562
 20
17.451562
 10
43.048437
 20
17.451562
 10
43.048437
 20
18.948438
  0
LWPOLYLINE
  8
0
 62
7
 90
5
 70
1
 10
43.600000
 20
18.948438
 10
43.351563
 20
18.948438
 10
43.351563
 20
17.451562
 10
43.848438
 20
17.451562
 10
43.848438
 20
18.948438
  0
LWPOLYLINE
  8
0
 62
7
 90
5
 70
1
 10
44.400000
 20
18.948438
 10
44.151562
 20
18.948438
 10
44.151562
 20
17.451562
 10
44.648438
 20
17.451562
 10
44.648438
 20
18.948438
  0
LWPOLYLINE
  8
0
 62
7
 90
5
 70
1
 10
45.200000
 20
18.948438
 10
44.951563
 20
18.948438
 10
44.951563
 20
17.451562
 10
45.448438
 20
17.451562
 10
45.448438
 20
18.948438
  0
LWPOLYLINE
  8
0
 62
7
 90
5
 70
1
 10
46.000000
 20
18.948438
 10
45.751562
 20
18.948438
 10
45.751562
 20
17.451562
 10
46.248438
 20
17.451562
 10
46.248438
 20
18.948438
  0
LWPOLYLINE
  8
0
 62
7
 90
5
 70
1
 10
46.800000
 20
18.948438
 10
46.551562
 20
18.948438
 10
46.551562
 20
17.451562
 10
47.048437
 20
17.451562
 10
47.048437
 20
18.948438
  0
LWPOLYLINE
  8
0
 62
7
 90
5
 70
1
 10
47.600000
 20
18.948438
 10
47.351563
 20
18.948438
 10
47.351563
 20
17.451562
 10
47.848438
 20
17.451562
 10
47.848438
 20
18.948438
  0
LWPOLYLINE
  8
0
 62
7
 90
5
 70
1
 10
48.400000
 20
18.948438
 10
48.151562
 20
18.948438
 10
48.151562
 20
17.451562
 10
48.648438
 20
17.451562
 10
48.648438
 20
18.948438
  0
LWPOLYLINE
  8
0
 62
7
 90
5
 70
1
 10
49.200000
 20
18.948438
 10
48.951563
 20
18.948438
 10
48.951563
 20
17.451562
 10
49.448438
 20
17.451562
 10
49.448438
 20
18.948438
  0
LWPOLYLINE
  8
0
 62
7
 90
5
 70
1
 10
50.000000
 20
18.948438
 10
49.751562
 20
18.948438
 10
49.751562
 20
17.451562
 10
50.248438
 20
17.451562
 10
50.248438
 20
18.948438
  0
LWPOLYLINE
  8
0
 62
7
 90
5
 70
1
 10
51.800000
 20
20.248438
 10
51.051562
 20
20.248438
 10
51.051562
 20
19.751562
 10
52.548437
 20
19.751562
 10
52.548437
 20
20.248438
  0
LWPOLYLINE
  8
0
 62
7
 90
5
 70
1
 10
51.800000
 20
21.048438
 10
51.051562
 20
21.048438
 10
51.051562
 20
20.551562
 10
52.548437
 20
20.551562
 10
52.548437
 20
21.048438
  0
LWPOLYLINE
  8
0
 62
7
 90
5
 70
1
 10
51.800000
 20
21.848438
 10
51.051562
 20
21.848438
 10
51.051562
 20
21.351563
 10
52.548437
 20
21.351563
 10
52.548437
 20
21.848438
  0
LWPOLYLINE
  8
0
 62
7
 90
5
 70
1
 10
51.800000
 20
22.648438
 10
51.051562
 20
22.648438
 10
51.051562
 20
22.151562
 10
52.548437
 20
22.151562
 10
52.548437
 20
22.648438
  0
LWPOLYLINE
  8
0
 62
7
 90
5
 70
1
 10
51.800000
 20
23.448438
 10
51.051562
 20
23.448438
 10
51.051562
 20
22.951562
 10
52.548437
 20
22.951562
 10
52.548437
 20
23.448438
  0
LWPOLYLINE
  8
0
 62
7
 90
5
 70
1
 10
51.800000
 20
24.248438
 10
51.051562
 20
24.248438
 10
51.051562
 20
23.751562
 10
52.548437
 20
23.751562
 10
52.548437
 20
24.248438
  0
LWPOLYLINE
  8
0
 62
7
 90
5
 70
1
 10
51.800000
 20
25.048438
 10
51.051562
 20
25.048438
 10
51.051562
 20
24.551562
 10
52.548437
 20
24.551562
 10
52.548437
 20
25.048438
  0
LWPOLYLINE
  8
0
 62
7
 90
5
 70
1
 10
51.800000
 20
25.848438
 10
51.051562
 20
25.848438
 10
51.051562
 20
25.351563
 10
52.548437
 20
25.351563
 10
52.548437
 20
25.848438
  0
LWPOLYLINE
  8
0
 62
7
 90
5
 70
1
 10
51.800000
 20
26.648438
 10
51.051562
 20
26.648438
 10
51.051562
 20
26.151562
 10
52.548437
 20
26.151562
 10
52.548437
 20
26.648438
  0
LWPOLYLINE
  8
0
 62
7
 90
5
 70
1
 10
51.800000
 20
27.448438
 10
51.051562
 20
27.448438
 10
51.051562
 20
26.951562
 10
52.548437
 20
26.951562
 10
52.548437
 20
27.448438
  0
LWPOLYLINE
  8
0
 62
7
 90
5
 70
1
 10
51.800000
 20
28.248438
 10
51.051562
 20
28.248438
 10
51.051562
 20
27.751562
 10
52.548437
 20
27.751562
 10
52.548437
 20
28.248438
  0
LWPOLYLINE
  8
0
 62
7
 90
5
 70
1
 10
50.000000
 20
30.548438
 10
49.751562
 20
30.548438
 10
49.751562
 20
29.051562
 10
50.248438
 20
29.051562
 10
50.248438
 20
30.548438
  0
LWPOLYLINE
  8
0
 62
7
 90
5
 70
1
 10
49.200000
 20
30.548438
 10
48.951563
 20
30.548438
 10
48.951563
 20
29.051562
 10
49.448438
 20
29.051562
 10
49.448438
 20
30.548438
  0
LWPOLYLINE
  8
0
 62
7
 90
5
 70
1
 10
48.400000
 20
30.548438
 10
48.151562
 20
30.548438
 10
48.151562
 20
29.051562
 10
48.648438
 20
29.051562
 10
48.648438
 20
30.548438
  0
LWPOLYLINE
  8
0
 62
7
 90
5
 70
1
 10
47.600000
 20
30.548438
 10
47.351563
 20
30.548438
 10
47.351563
 20
29.051562
 10
47.848438
 20
29.051562
 10
47.848438
 20
30.548438
  0
LWPOLYLINE
  8
0
 62
7
 90
5
 70
1
 10
46.800000
 20
30.548438
 10
46.551562
 20
30.548438
 10
46.551562
 20
29.051562
 10
47.048437
 20
29.051562
 10
47.048437
 20
30.548438
  0
LWPOLYLINE
  8
0
 62
7
 90
5
 70
1
 10
46.000000
 20
30.548438
 10
45.751562
 20
30.548438
 10
45.751562
 20
29.051562
 10
46.248438
 20
29.051562
 10
46.248438
 20
30.548438
  0
LWPOLYLINE
  8
0
 62
7
 90
5
 70
1
 10
45.200000
 20
30.548438
 10
44.951563
 20
30.548438
 10
44.951563
 20
29.051562
 10
45.448438
 20
29.051562
 10
45.448438
 20
30.548438
  0
LWPOLYLINE
  8
0
 62
7
 90
5
 70
1
 10
44.400000
 20
30.548438
 10
44.151562
 20
30.548438
 10
44.151562
 20
29.051562
 10
44.648438
 20
29.051562
 10
44.648438
 20
30.548438
  0
LWPOLYLINE
  8
0
 62
7
 90
5
 70
1
 10
43.600000
 20
30.548438
 10
43.351563
 20
30.548438
 10
43.351563
 20
29.051562
 10
43.848438
 20
29.051562
 10
43.848438
 20
30.548438
  0
LWPOLYLINE
  8
0
 62
7
 90
5
 70
1
 10
42.800000
 20
30.548438
 10
42.551562
 20
30.548438
 10
42.551562
 20
29.051562
 10
43.048437
 20
29.051562
 10
43.048437
 20
30.548438
  0
LWPOLYLINE
  8
0
 62
7
 90
5
 70
1
 10
42.000000
 20
30.548438
 10
41.751562
 20
30.548438
 10
41.751562
 20
29.051562
 10
42.248438
 20
29.051562
 10
42.248438
 20
30.548438
  0
LWPOLYLINE
  8
0
 62
7
 90
5
 70
1
 10
40.200000
 20
28.248438
 10
39.451563
 20
28.248438
 10
39.451563
 20
27.751562
 10
40.948438
 20
27.751562
 10
40.948438
 20
28.248438
  0
LWPOLYLINE
  8
0
 62
7
 90
5
 70
1
 10
40.200000
 20
27.448438
 10
39.451563
 20
27.448438
 10
39.451563
 20
26.951562
 10
40.948438
 20
26.951562
 10
40.948438
 20
27.448438
  0
LWPOLYLINE
  8
0
 62
7
 90
5
 70
1
 10
40.200000
 20
26.648438
 10
39.451563
 20
26.648438
 10
39.451563
 20
26.151562
 10
40.948438
 20
26.151562
 10
40.948438
 20
26.648438
  0
LWPOLYLINE
  8
0
 62
7
 90
5
 70
1
 10
40.200000
 20
25.848438
 10
39.451563
 20
25.848438
 10
39.451563
 20
25.351563
 10
40.948438
 20
25.351563
 10
40.948438
 20
25.848438
  0
LWPOLYLINE
  8
0
 62
7
 90
5
 70
1
 10
40.200000
 20
25.048438
 10
39.451563
 20
25.048438
 10
39.451563
 20
24.551562
 10
40.948438
 20
24.551562
 10
40.948438
 20
25.048438
  0
LWPOLYLINE
  8
0
 62
7
 90
5
 70
1
 10
40.200000
 20
24.248438
 10
39.451563
 20
24.248438
 10
39.451563
 20
23.751562
 10
40.948438
 20
23.751562
 10
40.948438
 20
24.248438
  0
LWPOLYLINE
  8
0
 62
7
 90
5
 70
1
 10
40.200000
 20
23.448438
 10
39.451563
 20
23.448438
 10
39.451563
 20
22.951562
 10
40.948438
 20
22.951562
 10
40.948438
 20
23.448438
  0
LWPOLYLINE
  8
0
 62
7
 90
5
 70
1
 10
40.200000
 20
22.648438
 10
39.451563
 20
22.648438
 10
39.451563
 20
22.151562
 10
40.948438
 20
22.151562
 10
40.948438
 20
22.648438
  0
LWPOLYLINE
  8
0
 62
7
 90
5
 70
1
 10
40.200000
 20
21.848438
 10
39.451563
 20
21.848438
 10
39.451563
 20
21.351563
 10
40.948438
 20
21.351563
 10
40.948438
 20
21.848438
  0
LWPOLYLINE
  8
0
 62
7
 90
5
 70
1
 10
40.200000
 20
21.048438
 10
39.451563
 20
21.048438
 10
39.451563
 20
20.551562
 10
40.948438
 20
20.551562
 10
40.948438
 20
21.048438
  0
LWPOLYLINE
  8
0
 62
7
 90
5
 70
1
 10
40.200000
 20
20.248438
 10
39.451563
 20
20.248438
 10
39.451563
 20
19.751562
 10
40.948438
 20
19.751562
 10
40.948438
 20
20.248438
  0
LWPOLYLINE
  8
0
 62
7
 90
5
 70
1
 10
26.848437
 20
10.445000
 10
26.848437
 20
10.823438
 10
25.751563
 20
10.823438
 10
25.751563
 20
10.066562
 10
26.848437
 20
10.066562
  0
LWPOLYLINE
  8
0
 62
7
 90
5
 70
1
 10
26.848437
 20
9.175000
 10
26.848437
 20
9.553438
 10
25.751563
 20
9.553438
 10
25.751563
 20
8.796563
 10
26.848437
 20
8.796563
  0
LWPOLYLINE
  8
0
 62
7
 90
5
 70
1
 10
26.848437
 20
7.905000
 10
26.848437
 20
8.283437
 10
25.751563
 20
8.283437
 10
25.751563
 20
7.526563
 10
26.848437
 20
7.526563
  0
LWPOLYLINE
  8
0
 62
7
 90
5
 70
1
 10
26.848437
 20
6.660400
 10
26.848437
 20
7.038837
 10
25.751563
 20
7.038837
 10
25.751563
 20
6.281963
 10
26.848437
 20
6.281963
  0
LWPOLYLINE
  8
0
 62
7
 90
5
 70
1
 10
26.848437
 20
5.365000
 10
26.848437
 20
5.743438
 10
25.751563
 20
5.743438
 10
25.751563
 20
4.986562
 10
26.848437
 20
4.986562
  0
LWPOLYLINE
  8
0
 62
7
 90
5
 70
1
 10
26.848437
 20
4.095000
 10
26.848437
 20
4.473437
 10
25.751563
 20
4.473437
 10
25.751563
 20
3.716562
 10
26.848437
 20
3.716562
  0
LWPOLYLINE
  8
0
 62
7
 90
5
 70
1
 10
26.848437
 20
2.825000
 10
26.848437
 20
3.203438
 10
25.751563
 20
3.203438
 10
25.751563
 20
2.446563
 10
26.848437
 20
2.446563
  0
LWPOLYLINE
  8
0
 62
7
 90
5
 70
1
 10
26.848437
 20
1.555000
 10
26.848437
 20
1.933437
 10
25.751563
 20
1.933437
 10
25.751563
 20
1.176562
 10
26.848437
 20
1.176562
  0
LWPOLYLINE
  8
0
 62
7
 90
5
 70
1
 10
32.248438
 20
1.555000
 10
32.248438
 20
1.933437
 10
31.151563
 20
1.933437
 10
31.151563
 20
1.176562
 10
32.248438
 20
1.176562
  0
LWPOLYLINE
  8
0
 62
7
 90
5
 70
1
 10
32.248438
 20
2.825000
 10
32.248438
 20
3.203438
 10
31.151563
 20
3.203438
 10
31.151563
 20
2.446563
 10
32.248438
 20
2.446563
  0
LWPOLYLINE
  8
0
 62
7
 90
5
 70
1
 10
32.248438
 20
4.095000
 10
32.248438
 20
4.473437
 10
31.151563
 20
4.473437
 10
31.151563
 20
3.716562
 10
32.248438
 20
3.716562
  0
LWPOLYLINE
  8
0
 62
7
 90
5
 70
1
 10
32.248438
 20
5.365000
 10
32.248438
 20
5.743438
 10
31.151563
 20
5.743438
 10
31.151563
 20
4.986562
 10
32.248438
 20
4.986562
  0
LWPOLYLINE
  8
0
 62
7
 90
5
 70
1
 10
32.248438
 20
6.635000
 10
32.248438
 20
7.013438
 10
31.151563
 20
7.013438
 10
31.151563
 20
6.256562
 10
32.248438
 20
6.256562
  0
LWPOLYLINE
  8
0
 62
7
 90
5
 70
1
 10
32.248438
 20
7.905000
 10
32.248438
 20
8.283437
 10
31.151563
 20
8.283437
 10
31.151563
 20
7.526563
 10
32.248438
 20
7.526563
  0
LWPOLYLINE
  8
0
 62
7
 90
5
 70
1
 10
32.248438
 20
9.175000
 10
32.248438
 20
9.553438
 10
31.151563
 20
9.553438
 10
31.151563
 20
8.796563
 10
32.248438
 20
8.796563
  0
LWPOLYLINE
  8
0
 62
7
 90
5
 70
1
 10
32.248438
 20
10.445000
 10
32.248438
 20
10.823438
 10
31.151563
 20
10.823438
 10
31.151563
 20
10.066562
 10
32.248438
 20
10.066562
  0
LWPOLYLINE
  8
0
 62
7
 90
5
 70
1
 10
6.595000
 20
27.926563
 10
7.318437
 20
27.926563
 10
7.318437
 20
28.523438
 10
5.871562
 20
28.523438
 10
5.871562
 20
27.926563
  0
LWPOLYLINE
  8
0
 62
7
 90
5
 70
1
 10
6.595000
 20
27.151563
 10
7.318437
 20
27.151563
 10
7.318437
 20
27.748437
 10
5.871562
 20
27.748437
 10
5.871562
 20
27.151563
  0
LWPOLYLINE
  8
0
 62
7
 90
5
 70
1
 10
6.595000
 20
26.101563
 10
7.318437
 20
26.101563
 10
7.318437
 20
26.398438
 10
5.871562
 20
26.398438
 10
5.871562
 20
26.101563
  0
LWPOLYLINE
  8
0
 62
7
 90
5
 70
1
 10
6.595000
 20
25.101563
 10
7.318437
 20
25.101563
 10
7.318437
 20
25.398438
 10
5.871562
 20
25.398438
 10
5.871562
 20
25.101563
  0
LWPOLYLINE
  8
0
 62
7
 90
5
 70
1
 10
6.595000
 20
24.601563
 10
7.318437
 20
24.601563
 10
7.318437
 20
24.898438
 10
5.871562
 20
24.898438
 10
5.871562
 20
24.601563
  0
LWPOLYLINE
  8
0
 62
7
 90
5
 70
1
 10
6.595000
 20
23.601563
 10
7.318437
 20
23.601563
 10
7.318437
 20
23.898438
 10
5.871562
 20
23.898438
 10
5.871562
 20
23.601563
  0
LWPOLYLINE
  8
0
 62
7
 90
5
 70
1
 10
6.595000
 20
22.251563
 10
7.318437
 20
22.251563
 10
7.318437
 20
22.848437
 10
5.871562
 20
22.848437
 10
5.871562
 20
22.251563
  0
LWPOLYLINE
  8
0
 62
7
 90
5
 70
1
 10
6.595000
 20
21.476563
 10
7.318437
 20
21.476563
 10
7.318437
 20
22.073437
 10
5.871562
 20
22.073437
 10
5.871562
 20
21.476563
  0
LWPOLYLINE
  8
0
 62
7
 90
5
 70
1
 10
6.595000
 20
23.101563
 10
7.318437
 20
23.101563
 10
7.318437
 20
23.398438
 10
5.871562
 20
23.398438
 10
5.871562
 20
23.101563
  0
LWPOLYLINE
  8
0
 62
7
 90
5
 70
1
 10
6.595000
 20
24.101563
 10
7.318437
 20
24.101563
 10
7.318437
 20
24.398438
 10
5.871562
 20
24.398438
 10
5.871562
 20
24.101563
  0
LWPOLYLINE
  8
0
 62
7
 90
5
 70
1
 10
6.595000
 20
25.601563
 10
7.318437
 20
25.601563
 10
7.318437
 20
25.898438
 10
5.871562
 20
25.898438
 10
5.871562
 20
25.601563
  0
LWPOLYLINE
  8
0
 62
7
 90
5
 70
1
 10
6.595000
 20
26.601563
 10
7.318437
 20
26.601563
 10
7.318437
 20
26.898438
 10
5.871562
 20
26.898438
 10
5.871562
 20
26.601563
  0
LWPOLYLINE
  8
0
 62
7
 90
5
 70
1
 10
19.000000
 20
11.882563
 10
19.379438
 20
11.882563
 10
19.379438
 20
12.641438
 10
18.620562
 20
12.641438
 10
18.620562
 20
11.882563
  0
LWPOLYLINE
  8
0
 62
7
 90
5
 70
1
 10
19.000000
 20
10.358562
 10
19.379438
 20
10.358562
 10
19.379438
 20
11.117437
 10
18.620562
 20
11.117437
 10
18.620562
 20
10.358562
  0
LWPOLYLINE
  8
0
 62
7
 90
5
 70
1
 10
35.000000
 20
21.382562
 10
35.379438
 20
21.382562
 10
35.379438
 20
22.141438
 10
34.620562
 20
22.141438
 10
34.620562
 20
21.382562
  0
LWPOLYLINE
  8
0
 62
7
 90
5
 70
1
 10
35.000000
 20
19.858562
 10
35.379438
 20
19.858562
 10
35.379438
 20
20.617438
 10
34.620562
 20
20.617438
 10
34.620562
 20
19.858562
  0
LWPOLYLINE
  8
0
 62
7
 90
5
 70
1
 10
57.617438
 20
32.000000
 10
57.617438
 20
32.379438
 10
56.858562
 20
32.379438
 10
56.858562
 20
31.620562
 10
57.617438
 20
31.620562
  0
LWPOLYLINE
  8
0
 62
7
 90
5
 70
1
 10
59.141438
 20
32.000000
 10
59.141438
 20
32.379438
 10
58.382562
 20
32.379438
 10
58.382562
 20
31.620562
 10
59.141438
 20
31.620562
  0
LWPOLYLINE
  8
0
 62
7
 90
5
 70
1
 10
37.551563
 20
30.000000
 10
37.551563
 20
29.551562
 10
38.348438
 20
29.551562
 10
38.348438
 20
30.448438
 10
37.551563
 20
30.448438
  0
LWPOLYLINE
  8
0
 62
7
 90
5
 70
1
 10
35.651562
 20
30.000000
 10
35.651562
 20
29.551562
 10
36.448437
 20
29.551562
 10
36.448437
 20
30.448438
 10
35.651562
 20
30.448438
  0
LWPOLYLINE
  8
0
 62
7
 90
5
 70
1
 10
36.601563
 20
27.900000
 10
36.601563
 20
27.451562
 10
37.398438
 20
27.451562
 10
37.398438
 20
28.348437
 10
36.601563
 20
28.348437
  0
LWPOLYLINE
  8
0
 62
7
 90
5
 70
1
 10
22.451562
 20
12.100000
 10
22.451562
 20
11.401562
 10
23.448438
 20
11.401562
 10
23.448438
 20
12.798438
 10
22.451562
 20
12.798438
  0
LWPOLYLINE
  8
0
 62
7
 90
5
 70
1
 10
21.501562
 20
9.900000
 10
21.501562
 20
9.201562
 10
22.498438
 20
9.201562
 10
22.498438
 20
10.598438
 10
21.501562
 20
10.598438
  0
LWPOLYLINE
  8
0
 62
7
 90
5
 70
1
 10
20.551562
 20
12.100000
 10
20.551562
 20
11.401562
 10
21.548438
 20
11.401562
 10
21.548438
 20
12.798438
 10
20.551562
 20
12.798438
  0
LWPOLYLINE
  8
0
 62
7
 90
5
 70
1
 10
36.617438
 20
32.000000
 10
36.617438
 20
32.379438
 10
35.858562
 20
32.379438
 10
35.858562
 20
31.620562
 10
36.617438
 20
31.620562
  0
LWPOLYLINE
  8
0
 62
7
 90
5
 70
1
 10
38.141438
 20
32.000000
 10
38.141438
 20
32.379438
 10
37.382562
 20
32.379438
 10
37.382562
 20
31.620562
 10
38.141438
 20
31.620562
  0
LWPOLYLINE
  8
0
 62
7
 90
5
 70
1
 10
58.382562
 20
21.000000
 10
58.382562
 20
20.620562
 10
59.141438
 20
20.620562
 10
59.141438
 20
21.379438
 10
58.382562
 20
21.379438
  0
LWPOLYLINE
  8
0
 62
7
 90
5
 70
1
 10
56.858562
 20
21.000000
 10
56.858562
 20
20.620562
 10
57.617438
 20
20.620562
 10
57.617438
 20
21.379438
 10
56.858562
 20
21.379438
  0
LWPOLYLINE
  8
0
 62
7
 90
5
 70
1
 10
10.382563
 20
30.000000
 10
10.382563
 20
29.620562
 10
11.141438
 20
29.620562
 10
11.141438
 20
30.379438
 10
10.382563
 20
30.379438
  0
LWPOLYLINE
  8
0
 62
7
 90
5
 70
1
 10
8.858562
 20
30.000000
 10
8.858562
 20
29.620562
 10
9.617437
 20
29.620562
 10
9.617437
 20
30.379438
 10
8.858562
 20
30.379438
  0
LWPOLYLINE
  8
0
 62
7
 90
5
 70
1
 10
4.882562
 20
18.500000
 10
4.882562
 20
18.120562
 10
5.641437
 20
18.120562
 10
5.641437
 20
18.879438
 10
4.882562
 20
18.879438
  0
LWPOLYLINE
  8
0
 62
7
 90
5
 70
1
 10
3.358563
 20
18.500000
 10
3.358563
 20
18.120562
 10
4.117438
 20
18.120562
 10
4.117438
 20
18.879438
 10
3.358563
 20
18.879438
  0
LWPOLYLINE
  8
0
 62
7
 90
5
 70
1
 10
71.117437
 20
16.000000
 10
71.117437
 20
16.379438
 10
70.358563
 20
16.379438
 10
70.358563
 20
15.620563
 10
71.117437
 20
15.620563
  0
LWPOLYLINE
  8
0
 62
7
 90
5
 70
1
 10
72.641437
 20
16.000000
 10
72.641437
 20
16.379438
 10
71.882563
 20
16.379438
 10
71.882563
 20
15.620563
 10
72.641437
 20
15.620563
  0
LWPOLYLINE
  8
0
 62
7
 90
5
 70
1
 10
35.000000
 20
24.617438
 10
34.620562
 20
24.617438
 10
34.620562
 20
23.858562
 10
35.379438
 20
23.858562
 10
35.379438
 20
24.617438
  0
LWPOLYLINE
  8
0
 62
7
 90
5
 70
1
 10
35.000000
 20
26.141438
 10
34.620562
 20
26.141438
 10
34.620562
 20
25.382562
 10
35.379438
 20
25.382562
 10
35.379438
 20
26.141438
  0
LWPOLYLINE
  8
0
 62
7
 90
5
 70
1
 10
16.000000
 20
24.382562
 10
16.379438
 20
24.382562
 10
16.379438
 20
25.141438
 10
15.620563
 20
25.141438
 10
15.620563
 20
24.382562
  0
LWPOLYLINE
  8
0
 62
7
 90
5
 70
1
 10
16.000000
 20
22.858562
 10
16.379438
 20
22.858562
 10
16.379438
 20
23.617438
 10
15.620563
 20
23.617438
 10
15.620563
 20
22.858562
  0
LWPOLYLINE
  8
0
 62
7
 90
5
 70
1
 10
12.117437
 20
18.500000
 10
12.117437
 20
18.879438
 10
11.358562
 20
18.879438
 10
11.358562
 20
18.120562
 10
12.117437
 20
18.120562
  0
LWPOLYLINE
  8
0
 62
7
 90
5
 70
1
 10
13.641438
 20
18.500000
 10
13.641438
 20
18.879438
 10
12.882563
 20
18.879438
 10
12.882563
 20
18.120562
 10
13.641438
 20
18.120562
  0
LWPOLYLINE
  8
0
 62
7
 90
5
 70
1
 10
14.617437
 20
4.500000
 10
14.617437
 20
4.879437
 10
13.858562
 20
4.879437
 10
13.858562
 20
4.120563
 10
14.617437
 20
4.120563
  0
LWPOLYLINE
  8
0
 62
7
 90
5
 70
1
 10
16.141438
 20
4.500000
 10
16.141438
 20
4.879437
 10
15.382563
 20
4.879437
 10
15.382563
 20
4.120563
 10
16.141438
 20
4.120563
  0
LWPOLYLINE
  8
0
 62
7
 90
5
 70
1
 10
14.617437
 20
2.500000
 10
14.617437
 20
2.879437
 10
13.858562
 20
2.879437
 10
13.858562
 20
2.120563
 10
14.617437
 20
2.120563
  0
LWPOLYLINE
  8
0
 62
7
 90
5
 70
1
 10
16.141438
 20
2.500000
 10
16.141438
 20
2.879437
 10
15.382563
 20
2.879437
 10
15.382563
 20
2.120563
 10
16.141438
 20
2.120563
  0
LWPOLYLINE
  8
0
 62
7
 90
5
 70
1
 10
53.117438
 20
32.000000
 10
53.117438
 20
32.379438
 10
52.358562
 20
32.379438
 10
52.358562
 20
31.620562
 10
53.117438
 20
31.620562
  0
LWPOLYLINE
  8
0
 62
7
 90
5
 70
1
 10
54.641438
 20
32.000000
 10
54.641438
 20
32.379438
 10
53.882562
 20
32.379438
 10
53.882562
 20
31.620562
 10
54.641438
 20
31.620562
  0
LWPOLYLINE
  8
0
 62
7
 90
5
 70
1
 10
19.000000
 20
7.117438
 10
18.620562
 20
7.117438
 10
18.620562
 20
6.358563
 10
19.379438
 20
6.358563
 10
19.379438
 20
7.117438
  0
LWPOLYLINE
  8
0
 62
7
 90
5
 70
1
 10
19.000000
 20
8.641438
 10
18.620562
 20
8.641438
 10
18.620562
 20
7.882563
 10
19.379438
 20
7.882563
 10
19.379438
 20
8.641438
  0
LWPOLYLINE
  8
0
 62
7
 90
5
 70
1
 10
21.000000
 20
6.617438
 10
20.620562
 20
6.617438
 10
20.620562
 20
5.858563
 10
21.379438
 20
5.858563
 10
21.379438
 20
6.617438
  0
LWPOLYLINE
  8
0
 62
7
 90
5
 70
1
 10
21.000000
 20
8.141438
 10
20.620562
 20
8.141438
 10
20.620562
 20
7.382562
 10
21.379438
 20
7.382562
 10
21.379438
 20
8.141438
  0
LWPOLYLINE
  8
0
 62
7
 90
5
 70
1
 10
58.750000
 20
5.498437
 10
58.401562
 20
5.498437
 10
58.401562
 20
4.001563
 10
59.098438
 20
4.001563
 10
59.098438
 20
5.498437
  0
LWPOLYLINE
  8
0
 62
7
 90
5
 70
1
 10
61.750000
 20
5.498437
 10
61.401562
 20
5.498437
 10
61.401562
 20
4.001563
 10
62.098438
 20
4.001563
 10
62.098438
 20
5.498437
  0
LWPOLYLINE
  8
0
 62
7
 90
5
 70
1
 10
63.250000
 20
5.498437
 10
62.901562
 20
5.498437
 10
62.901562
 20
4.001563
 10
63.598438
 20
4.001563
 10
63.598438
 20
5.498437
  0
LWPOLYLINE
  8
0
 62
7
 90
5
 70
1
 10
57.848438
 20
4.050000
 10
57.848438
 20
4.448437
 10
56.851563
 20
4.448437
 10
56.851563
 20
3.651562
 10
57.848438
 20
3.651562
  0
LWPOLYLINE
  8
0
 62
7
 90
5
 70
1
 10
57.848438
 20
1.950000
 10
57.848438
 20
2.348438
 10
56.851563
 20
2.348438
 10
56.851563
 20
1.551562
 10
57.848438
 20
1.551562
  0
LWPOLYLINE
  8
0
 62
7
 90
5
 70
1
 10
65.148438
 20
4.050000
 10
65.148438
 20
4.448437
 10
64.151563
 20
4.448437
 10
64.151563
 20
3.651562
 10
65.148438
 20
3.651562
  0
LWPOLYLINE
  8
0
 62
7
 90
5
 70
1
 10
65.148438
 20
1.950000
 10
65.148438
 20
2.348438
 10
64.151563
 20
2.348438
 10
64.151563
 20
1.551562
 10
65.148438
 20
1.551562
  0
LWPOLYLINE
  8
0
 62
7
 90
5
 70
1
 10
36.750000
 20
5.498437
 10
36.401562
 20
5.498437
 10
36.401562
 20
4.001563
 10
37.098438
 20
4.001563
 10
37.098438
 20
5.498437
  0
LWPOLYLINE
  8
0
 62
7
 90
5
 70
1
 10
39.750000
 20
5.498437
 10
39.401562
 20
5.498437
 10
39.401562
 20
4.001563
 10
40.098438
 20
4.001563
 10
40.098438
 20
5.498437
  0
LWPOLYLINE
  8
0
 62
7
 90
5
 70
1
 10
41.250000
 20
5.498437
 10
40.901562
 20
5.498437
 10
40.901562
 20
4.001563
 10
41.598438
 20
4.001563
 10
41.598438
 20
5.498437
  0
LWPOLYLINE
  8
0
 62
7
 90
5
 70
1
 10
35.848438
 20
4.050000
 10
35.848438
 20
4.448437
 10
34.851563
 20
4.448437
 10
34.851563
 20
3.651562
 10
35.848438
 20
3.651562
  0
LWPOLYLINE
  8
0
 62
7
 90
5
 70
1
 10
35.848438
 20
1.950000
 10
35.848438
 20
2.348438
 10
34.851563
 20
2.348438
 10
34.851563
 20
1.551562
 10
35.848438
 20
1.551562
  0
LWPOLYLINE
  8
0
 62
7
 90
5
 70
1
 10
43.148438
 20
4.050000
 10
43.148438
 20
4.448437
 10
42.151562
 20
4.448437
 10
42.151562
 20
3.651562
 10
43.148438
 20
3.651562
  0
LWPOLYLINE
  8
0
 62
7
 90
5
 70
1
 10
43.148438
 20
1.950000
 10
43.148438
 20
2.348438
 10
42.151562
 20
2.348438
 10
42.151562
 20
1.551562
 10
43.148438
 20
1.551562
  0
LWPOLYLINE
  8
0
 62
7
 90
5
 70
1
 10
63.550000
 20
8.301562
 10
64.248437
 20
8.301562
 10
64.248437
 20
9.698438
 10
62.851563
 20
9.698438
 10
62.851563
 20
8.301562
  0
LWPOLYLINE
  8
0
 62
7
 90
5
 70
1
 10
59.450000
 20
8.301562
 10
60.148438
 20
8.301562
 10
60.148438
 20
9.698438
 10
58.751563
 20
9.698438
 10
58.751563
 20
8.301562
  0
LWPOLYLINE
  8
0
 62
7
 90
5
 70
1
 10
57.501562
 20
26.900000
 10
57.501562
 20
26.351563
 10
58.798437
 20
26.351563
 10
58.798437
 20
27.448437
 10
57.501562
 20
27.448437
  0
LWPOLYLINE
  8
0
 62
7
 90
5
 70
1
 10
55.201563
 20
26.900000
 10
55.201563
 20
26.351563
 10
56.498438
 20
26.351563
 10
56.498438
 20
27.448437
 10
55.201563
 20
27.448437
  0
LWPOLYLINE
  8
0
 62
7
 90
5
 70
1
 10
55.201563
 20
25.100000
 10
55.201563
 20
24.551563
 10
56.498438
 20
24.551563
 10
56.498438
 20
25.648438
 10
55.201563
 20
25.648438
  0
LWPOLYLINE
  8
0
 62
7
 90
5
 70
1
 10
57.501562
 20
25.100000
 10
57.501562
 20
24.551563
 10
58.798437
 20
24.551563
 10
58.798437
 20
25.648438
 10
57.501562
 20
25.648438
  0
LWPOLYLINE
  8
0
 62
7
 90
5
 70
1
 10
16.000000
 20
27.882562
 10
16.379438
 20
27.882562
 10
16.379438
 20
28.641438
 10
15.620563
 20
28.641438
 10
15.620563
 20
27.882562
  0
LWPOLYLINE
  8
0
 62
7
 90
5
 70
1
 10
16.000000
 20
26.358562
 10
16.379438
 20
26.358562
 10
16.379438
 20
27.117438
 10
15.620563
 20
27.117438
 10
15.620563
 20
26.358562
  0
LWPOLYLINE
  8
0
 62
7
 90
5
 70
1
 10
8.117438
 20
18.500000
 10
8.117438
 20
18.879438
 10
7.358563
 20
18.879438
 10
7.358563
 20
18.120562
 10
8.117438
 20
18.120562
  0
LWPOLYLINE
  8
0
 62
7
 90
5
 70
1
 10
9.641438
 20
18.500000
 10
9.641438
 20
18.879438
 10
8.882563
 20
18.879438
 10
8.882563
 20
18.120562
 10
9.641438
 20
18.120562
  0
ENDSEC
  0
EOF
